<?xml version="1.0" encoding="UTF-8"?>
<svg width="400" height="400" viewBox="0 0 400 400" xmlns="http://www.w3.org/2000/svg">
  <!-- Background circle -->
  <circle cx="200" cy="200" r="195" fill="#f0f7ff" stroke="#3498db" stroke-width="5"/>
  
  <!-- Head -->
  <circle cx="200" cy="160" r="70" fill="#ffd8b5"/>
  
  <!-- Neck -->
  <path d="M170 210 L170 240 L230 240 L230 210" fill="#ffd8b5"/>
  
  <!-- Hair -->
  <path d="M200 90 C140 90, 120 160, 140 190 C150 195, 200 200, 250 190 C270 160, 260 90, 200 90" fill="#6d4c41"/>
  
  <!-- Suit/Shirt -->
  <path d="M170 240 L150 350 L200 320 L250 350 L230 240" fill="#2c3e50"/>
  <path d="M170 240 L230 240 L220 280 L180 280 Z" fill="#ecf0f1"/>
  
  <!-- Face -->
  <ellipse cx="170" cy="160" rx="10" ry="12" fill="#ffffff"/>
  <ellipse cx="230" cy="160" rx="10" ry="12" fill="#ffffff"/>
  <ellipse cx="170" cy="160" rx="5" ry="7" fill="#333333"/>
  <ellipse cx="230" cy="160" rx="5" ry="7" fill="#333333"/>
  
  <!-- Smile -->
  <path d="M175 190 Q200 210, 225 190" fill="none" stroke="#333333" stroke-width="3" stroke-linecap="round"/>
  
  <!-- Eyebrows -->
  <path d="M160 145 Q170 140, 180 145" fill="none" stroke="#6d4c41" stroke-width="3" stroke-linecap="round"/>
  <path d="M220 145 Q230 140, 240 145" fill="none" stroke="#6d4c41" stroke-width="3" stroke-linecap="round"/>
  
  <!-- Glasses -->
  <rect x="155" y="150" width="30" height="20" rx="5" ry="5" fill="none" stroke="#333333" stroke-width="2"/>
  <rect x="215" y="150" width="30" height="20" rx="5" ry="5" fill="none" stroke="#333333" stroke-width="2"/>
  <line x1="185" y1="160" x2="215" y2="160" stroke="#333333" stroke-width="2"/>
  
  <!-- Ears -->
  <path d="M130 160 C120 150, 120 170, 130 180" fill="#ffd8b5"/>
  <path d="M270 160 C280 150, 280 170, 270 180" fill="#ffd8b5"/>
</svg> 