<?xml version="1.0" encoding="UTF-8"?>
<svg width="32" height="32" viewBox="0 0 32 32" xmlns="http://www.w3.org/2000/svg">
  <!-- Background -->
  <rect width="32" height="32" rx="4" fill="#3498db"/>
  
  <!-- W letter stylized -->
  <path d="M7 8 L10 22 L13 16 L16 22 L19 8" stroke="white" stroke-width="2.5" fill="none" stroke-linecap="round" stroke-linejoin="round"/>
  
  <!-- Pen tip to represent writing -->
  <path d="M22 8 L26 12 L23 15 L19 11 Z" fill="white"/>
  <path d="M18 12 L22 16" stroke="white" stroke-width="1.5" stroke-linecap="round"/>
  <path d="M17 15 L20 18" stroke="white" stroke-width="1" stroke-linecap="round"/>
</svg> 
 
<svg width="32" height="32" viewBox="0 0 32 32" xmlns="http://www.w3.org/2000/svg">
  <!-- Background -->
  <rect width="32" height="32" rx="4" fill="#3498db"/>
  
  <!-- W letter stylized -->
  <path d="M7 8 L10 22 L13 16 L16 22 L19 8" stroke="white" stroke-width="2.5" fill="none" stroke-linecap="round" stroke-linejoin="round"/>
  
  <!-- Pen tip to represent writing -->
  <path d="M22 8 L26 12 L23 15 L19 11 Z" fill="white"/>
  <path d="M18 12 L22 16" stroke="white" stroke-width="1.5" stroke-linecap="round"/>
  <path d="M17 15 L20 18" stroke="white" stroke-width="1" stroke-linecap="round"/>
</svg> 